# xmcd CD database file
#
# Track frame offsets:
#	183
#	27455
#	52818
#	79658
#	109950
#	145758
#	180260
#	207935
#	238378
#	271593
#	296198
#	324988
#
# Disc length: 4618 seconds
#
# Revision: 0
# Processed by: cddbd v1.4PL0 Copyright (c) Steve Scherf et al.
# Submitted via: CDex 1.50beta10
#
DISCID=a712080c
DTITLE=John Patton - The organization! - The best of 'Big' John Patton (Best of Blue Note)
DYEAR=1960
DGENRE=Jazz
TTITLE0=Along came John
TTITLE1=Silver meter
TTITLE2=Bermuda clay house
TTITLE3=Jerry
TTITLE4=Hot sauce
TTITLE5=Fat Judy
TTITLE6=Amanda
TTITLE7=The turnaround
TTITLE8=Latona
TTITLE9=Chitlins con carne
TTITLE10=Footprints
TTITLE11=Freedom jazz dance
EXTD=YEAR: 1960
EXTT0=
EXTT1=
EXTT2=
EXTT3=
EXTT4=
EXTT5=
EXTT6=
EXTT7=
EXTT8=
EXTT9=
EXTT10=
EXTT11=
PLAYORDER=
